<svg version="1.1" id="Layer_1" xmlns="http://www.w3.org/2000/svg" xmlns:xlink="http://www.w3.org/1999/xlink" x="0px" y="0px"
	 width="100%" viewBox="0 0 500 500" enable-background="new 0 0 500 500" xml:space="preserve">
<path fill="#01D85F" opacity="1.000000" stroke="none" 
	d="
M282.000000,501.000000 
	C261.645782,501.000000 241.291550,501.000000 220.681885,500.608887 
	C215.382263,499.142517 210.375137,497.831055 205.287460,497.032990 
	C183.610275,493.632599 163.187408,486.096252 143.264984,477.401154 
	C128.082108,470.774597 113.891937,462.080536 101.070442,451.425385 
	C91.955032,443.850159 82.777084,436.324158 74.062386,428.303223 
	C69.267799,423.890320 65.320259,418.544403 61.086239,413.538422 
	C55.768612,407.251343 50.045940,401.228210 45.390419,394.475922 
	C35.438614,380.042053 26.403681,365.055389 20.222622,348.487671 
	C12.371587,327.443726 5.166967,306.263245 2.920096,283.728424 
	C2.856917,283.094757 1.665388,282.573608 0.999999,282.000000 
	C1.000000,261.645782 1.000000,241.291550 1.393523,220.672974 
	C2.300601,217.751053 2.726353,215.072922 3.343066,212.439529 
	C5.876867,201.620071 8.007298,190.678467 11.139285,180.032806 
	C16.930573,160.348129 23.961088,141.080475 35.030277,123.633446 
	C40.020390,115.768127 45.547878,108.222794 51.155025,100.775833 
	C56.722977,93.380943 62.154030,85.755165 68.629105,79.203056 
	C76.937851,70.795448 85.792839,62.783394 95.205597,55.647018 
	C107.417770,46.388256 119.956139,37.376080 133.188446,29.695150 
	C148.175705,20.995535 164.495697,14.889372 181.442215,10.896476 
	C193.659866,8.017786 205.994370,5.636472 218.253479,2.928038 
	C218.943939,2.775495 219.422699,1.664764 220.000000,1.000000 
	C239.354233,1.000000 258.708466,1.000000 278.272522,1.343103 
	C280.400024,2.453262 282.259644,3.630671 284.246033,3.911660 
	C290.611053,4.812040 297.296295,4.456454 303.365509,6.251011 
	C321.343781,11.566874 339.471954,16.730280 356.805084,23.767200 
	C372.099640,29.976509 386.425873,38.529800 399.102692,49.516613 
	C407.757782,57.017879 417.133575,63.702152 425.618378,71.380188 
	C431.084076,76.326157 435.410583,82.511131 440.438751,87.964630 
	C451.595673,100.065308 461.290894,113.248169 468.856781,127.831451 
	C474.918610,139.515686 480.940582,151.334915 485.551636,163.630020 
	C492.098145,181.086014 497.275452,199.044693 499.069183,217.774811 
	C499.145447,218.570877 500.331146,219.260696 501.000000,220.000000 
	C501.000000,237.354233 501.000000,254.708450 500.607605,272.341553 
	C499.805847,274.289551 499.182159,275.939087 499.027435,277.631470 
	C498.571777,282.614563 498.713348,287.683594 497.890198,292.596497 
	C493.769501,317.191284 486.232452,340.837158 475.095642,363.051697 
	C468.760437,375.688507 460.310730,387.315491 452.307648,399.052490 
	C443.378784,412.147156 433.175751,424.268616 421.404968,434.939423 
	C416.434631,439.445312 411.234650,443.783295 405.714020,447.579468 
	C392.674713,456.545898 379.839081,465.969055 366.039612,473.617065 
	C355.591187,479.407898 343.803162,482.798248 332.572632,487.157379 
	C316.971222,493.213074 300.849487,497.180969 284.208496,499.066345 
	C283.409546,499.156921 282.733368,500.330719 282.000000,501.000000 
M168.002609,193.999496 
	C168.002609,193.999496 167.942780,193.973297 168.885651,194.033356 
	C173.004715,193.995590 177.140060,194.169373 181.237747,193.853897 
	C184.581680,193.596451 187.880600,192.754379 191.888626,191.702515 
	C193.657410,191.477692 195.432602,191.016220 197.194000,191.063965 
	C219.734589,191.675034 242.296677,191.938629 264.802643,193.196869 
	C276.541473,193.853149 288.267303,195.843063 299.837677,198.069046 
	C309.318420,199.893036 318.591431,202.849182 327.899811,205.502411 
	C337.435760,208.220520 347.135895,210.583221 356.344055,214.177734 
	C369.425110,219.284058 382.350159,224.920242 394.893921,231.221680 
	C401.949249,234.765976 408.493408,238.425980 416.647461,236.049545 
	C425.108612,233.583603 431.885376,228.985840 434.799438,220.313782 
	C437.713928,211.640518 435.262238,204.046997 429.651917,196.973343 
	C423.973602,189.814011 415.274872,188.096161 407.913605,184.023544 
	C388.652985,173.367554 368.185333,165.441193 347.146545,159.186096 
	C334.490906,155.423431 321.514801,152.626678 308.553436,150.044617 
	C300.207581,148.382004 291.640289,147.766144 283.148987,146.912933 
	C269.069977,145.498306 254.978287,143.273758 240.880936,143.187363 
	C217.182724,143.042099 193.471725,144.190155 169.774857,145.038712 
	C161.218857,145.345108 152.579407,145.725739 144.168823,147.177704 
	C127.588707,150.040009 111.117676,153.559433 94.647598,157.025955 
	C81.550598,159.782516 73.017815,173.561020 75.405289,183.594116 
	C79.221039,199.629425 90.285477,207.720245 105.592384,204.291885 
	C116.593460,201.827896 127.756371,200.086395 139.772049,198.028427 
	C143.253494,197.422974 146.734955,196.817535 150.505096,196.084915 
	C150.505096,196.084915 150.818436,196.048492 151.765137,196.035980 
	C157.182877,195.336014 162.600616,194.636047 168.002609,193.999496 
M153.865387,234.050262 
	C143.925354,236.021881 133.951202,237.838303 124.055862,240.013245 
	C115.833885,241.820374 107.295349,242.996048 103.164833,252.302338 
	C99.749092,259.998230 100.237915,266.989319 105.235321,273.566681 
	C109.687103,279.425964 115.935173,282.014709 123.102554,280.850281 
	C135.352524,278.860168 147.431351,275.672974 159.725433,274.134064 
	C175.386505,272.173645 191.169327,270.770233 206.938293,270.205200 
	C222.467773,269.648682 237.960632,271.171326 253.496750,272.450684 
	C270.176117,273.824219 286.577942,275.089111 302.559357,280.201447 
	C304.711456,280.889862 307.188660,280.605164 309.301453,281.365387 
	C315.845551,283.719971 322.332245,286.251038 328.756378,288.918030 
	C337.915710,292.720581 347.135834,296.420349 356.072357,300.701813 
	C363.063293,304.051208 369.349182,308.526337 377.927155,307.138733 
	C388.836914,305.373901 398.046539,291.153656 392.407104,279.343994 
	C389.712280,273.700653 385.332306,271.377869 380.599030,269.122650 
	C364.804932,261.597321 349.258148,253.276352 332.851288,247.395233 
	C317.876892,242.027588 302.046387,238.662247 286.337280,235.837784 
	C270.375885,232.967957 254.142807,231.226700 237.951584,230.134949 
	C224.356979,229.218277 210.651443,229.944183 196.995010,229.951004 
	C195.663757,229.951675 194.323593,229.921158 193.002670,230.054581 
	C180.253357,231.342529 167.507309,232.662491 153.865387,234.050262 
M356.007019,366.584686 
	C363.954712,359.537933 363.177032,345.957184 351.265991,339.862091 
	C337.747681,332.944550 323.816498,326.713196 309.681274,321.159851 
	C298.286896,316.683350 286.221832,314.518860 274.012451,312.527527 
	C255.765106,309.551422 237.500137,306.975128 219.114639,307.212921 
	C200.359573,307.455505 181.588440,309.226562 162.903259,311.111023 
	C150.734711,312.338257 138.632141,314.599335 126.638420,317.069397 
	C115.564400,319.350006 110.534348,331.283112 115.958878,341.021545 
	C119.454193,347.296539 127.084770,351.214294 133.718063,349.963226 
	C142.227478,348.358246 150.647491,346.100281 159.219452,345.044373 
	C175.527695,343.035522 191.884323,340.943878 208.279388,340.229248 
	C231.714340,339.207672 254.984024,341.779816 277.835571,347.172882 
	C288.624329,349.719086 299.450165,352.460938 309.829071,356.282379 
	C318.570679,359.501038 326.691101,364.407379 335.084717,368.570221 
	C343.158630,372.574463 350.035889,373.157501 356.007019,366.584686 
z"/>
<path fill="#000000" opacity="1.000000" stroke="none" 
	d="
M501.000000,219.531342 
	C500.331146,219.260696 499.145447,218.570877 499.069183,217.774811 
	C497.275452,199.044693 492.098145,181.086014 485.551636,163.630020 
	C480.940582,151.334915 474.918610,139.515686 468.856781,127.831451 
	C461.290894,113.248169 451.595673,100.065308 440.438751,87.964630 
	C435.410583,82.511131 431.084076,76.326157 425.618378,71.380188 
	C417.133575,63.702152 407.757782,57.017879 399.102692,49.516613 
	C386.425873,38.529800 372.099640,29.976509 356.805084,23.767200 
	C339.471954,16.730280 321.343781,11.566874 303.365509,6.251011 
	C297.296295,4.456454 290.611053,4.812040 284.246033,3.911660 
	C282.259644,3.630671 280.400024,2.453262 278.741211,1.343103 
	C352.926544,1.000000 426.853058,1.000000 501.000000,1.000000 
	C501.000000,73.687416 501.000000,146.375046 501.000000,219.531342 
z"/>
<path fill="#000000" opacity="1.000000" stroke="none" 
	d="
M282.468689,501.000000 
	C282.733368,500.330719 283.409546,499.156921 284.208496,499.066345 
	C300.849487,497.180969 316.971222,493.213074 332.572632,487.157379 
	C343.803162,482.798248 355.591187,479.407898 366.039612,473.617065 
	C379.839081,465.969055 392.674713,456.545898 405.714020,447.579468 
	C411.234650,443.783295 416.434631,439.445312 421.404968,434.939423 
	C433.175751,424.268616 443.378784,412.147156 452.307648,399.052490 
	C460.310730,387.315491 468.760437,375.688507 475.095642,363.051697 
	C486.232452,340.837158 493.769501,317.191284 497.890198,292.596497 
	C498.713348,287.683594 498.571777,282.614563 499.027435,277.631470 
	C499.182159,275.939087 499.805847,274.289551 500.607605,272.810242 
	C501.000000,348.925568 501.000000,424.851135 501.000000,501.000000 
	C428.312592,501.000000 355.624939,501.000000 282.468689,501.000000 
z"/>
<path fill="#000000" opacity="1.000000" stroke="none" 
	d="
M0.999999,282.468658 
	C1.665388,282.573608 2.856917,283.094757 2.920096,283.728424 
	C5.166967,306.263245 12.371587,327.443726 20.222622,348.487671 
	C26.403681,365.055389 35.438614,380.042053 45.390419,394.475922 
	C50.045940,401.228210 55.768612,407.251343 61.086239,413.538422 
	C65.320259,418.544403 69.267799,423.890320 74.062386,428.303223 
	C82.777084,436.324158 91.955032,443.850159 101.070442,451.425385 
	C113.891937,462.080536 128.082108,470.774597 143.264984,477.401154 
	C163.187408,486.096252 183.610275,493.632599 205.287460,497.032990 
	C210.375137,497.831055 215.382263,499.142517 220.213226,500.608887 
	C147.072968,501.000000 74.145935,501.000000 1.000000,501.000000 
	C1.000000,428.312592 1.000000,355.624939 0.999999,282.468658 
z"/>
<path fill="#000000" opacity="1.000000" stroke="none" 
	d="
M219.531342,1.000000 
	C219.422699,1.664764 218.943939,2.775495 218.253479,2.928038 
	C205.994370,5.636472 193.659866,8.017786 181.442215,10.896476 
	C164.495697,14.889372 148.175705,20.995535 133.188446,29.695150 
	C119.956139,37.376080 107.417770,46.388256 95.205597,55.647018 
	C85.792839,62.783394 76.937851,70.795448 68.629105,79.203056 
	C62.154030,85.755165 56.722977,93.380943 51.155025,100.775833 
	C45.547878,108.222794 40.020390,115.768127 35.030277,123.633446 
	C23.961088,141.080475 16.930573,160.348129 11.139285,180.032806 
	C8.007298,190.678467 5.876867,201.620071 3.343066,212.439529 
	C2.726353,215.072922 2.300601,217.751053 1.393523,220.204315 
	C1.000000,147.072968 1.000000,74.145920 1.000000,1.000000 
	C73.687416,1.000000 146.375046,1.000000 219.531342,1.000000 
z"/>
<path fill="#000000" opacity="1.000000" stroke="none" 
	d="
M150.818436,196.048492 
	C150.818436,196.048492 150.505096,196.084915 149.919968,196.069000 
	C145.838928,196.709595 142.343002,197.366104 138.847092,198.022598 
	C127.756371,200.086395 116.593460,201.827896 105.592384,204.291885 
	C90.285477,207.720245 79.221039,199.629425 75.405289,183.594116 
	C73.017815,173.561020 81.550598,159.782516 94.647598,157.025955 
	C111.117676,153.559433 127.588707,150.040009 144.168823,147.177704 
	C152.579407,145.725739 161.218857,145.345108 169.774857,145.038712 
	C193.471725,144.190155 217.182724,143.042099 240.880936,143.187363 
	C254.978287,143.273758 269.069977,145.498306 283.148987,146.912933 
	C291.640289,147.766144 300.207581,148.382004 308.553436,150.044617 
	C321.514801,152.626678 334.490906,155.423431 347.146545,159.186096 
	C368.185333,165.441193 388.652985,173.367554 407.913605,184.023544 
	C415.274872,188.096161 423.973602,189.814011 429.651917,196.973343 
	C435.262238,204.046997 437.713928,211.640518 434.799438,220.313782 
	C431.885376,228.985840 425.108612,233.583603 416.647461,236.049545 
	C408.493408,238.425980 401.949249,234.765976 394.893921,231.221680 
	C382.350159,224.920242 369.425110,219.284058 356.344055,214.177734 
	C347.135895,210.583221 337.435760,208.220520 327.899811,205.502411 
	C318.591431,202.849182 309.318420,199.893036 299.837677,198.069046 
	C288.267303,195.843063 276.541473,193.853149 264.802643,193.196869 
	C242.296677,191.938629 219.734589,191.675034 197.194000,191.063965 
	C195.432602,191.016220 193.657410,191.477692 191.063309,191.874008 
	C182.806259,192.688110 175.374512,193.330704 167.942780,193.973297 
	C167.942780,193.973297 168.002609,193.999496 167.555801,193.995636 
	C161.678802,194.677338 156.248627,195.362915 150.818436,196.048492 
z"/>
<path fill="#000000" opacity="1.000000" stroke="none" 
	d="
M154.312851,234.011780 
	C167.507309,232.662491 180.253357,231.342529 193.002670,230.054581 
	C194.323593,229.921158 195.663757,229.951675 196.995010,229.951004 
	C210.651443,229.944183 224.356979,229.218277 237.951584,230.134949 
	C254.142807,231.226700 270.375885,232.967957 286.337280,235.837784 
	C302.046387,238.662247 317.876892,242.027588 332.851288,247.395233 
	C349.258148,253.276352 364.804932,261.597321 380.599030,269.122650 
	C385.332306,271.377869 389.712280,273.700653 392.407104,279.343994 
	C398.046539,291.153656 388.836914,305.373901 377.927155,307.138733 
	C369.349182,308.526337 363.063293,304.051208 356.072357,300.701813 
	C347.135834,296.420349 337.915710,292.720581 328.756378,288.918030 
	C322.332245,286.251038 315.845551,283.719971 309.301453,281.365387 
	C307.188660,280.605164 304.711456,280.889862 302.559357,280.201447 
	C286.577942,275.089111 270.176117,273.824219 253.496750,272.450684 
	C237.960632,271.171326 222.467773,269.648682 206.938293,270.205200 
	C191.169327,270.770233 175.386505,272.173645 159.725433,274.134064 
	C147.431351,275.672974 135.352524,278.860168 123.102554,280.850281 
	C115.935173,282.014709 109.687103,279.425964 105.235321,273.566681 
	C100.237915,266.989319 99.749092,259.998230 103.164833,252.302338 
	C107.295349,242.996048 115.833885,241.820374 124.055862,240.013245 
	C133.951202,237.838303 143.925354,236.021881 154.312851,234.011780 
z"/>
<path fill="#000000" opacity="1.000000" stroke="none" 
	d="
M355.751068,366.860016 
	C350.035889,373.157501 343.158630,372.574463 335.084717,368.570221 
	C326.691101,364.407379 318.570679,359.501038 309.829071,356.282379 
	C299.450165,352.460938 288.624329,349.719086 277.835571,347.172882 
	C254.984024,341.779816 231.714340,339.207672 208.279388,340.229248 
	C191.884323,340.943878 175.527695,343.035522 159.219452,345.044373 
	C150.647491,346.100281 142.227478,348.358246 133.718063,349.963226 
	C127.084770,351.214294 119.454193,347.296539 115.958878,341.021545 
	C110.534348,331.283112 115.564400,319.350006 126.638420,317.069397 
	C138.632141,314.599335 150.734711,312.338257 162.903259,311.111023 
	C181.588440,309.226562 200.359573,307.455505 219.114639,307.212921 
	C237.500137,306.975128 255.765106,309.551422 274.012451,312.527527 
	C286.221832,314.518860 298.286896,316.683350 309.681274,321.159851 
	C323.816498,326.713196 337.747681,332.944550 351.265991,339.862091 
	C363.177032,345.957184 363.954712,359.537933 355.751068,366.860016 
z"/>
<path fill="#26C36B" opacity="1.000000" stroke="none" 
	d="
M168.414215,194.003326 
	C175.374512,193.330704 182.806259,192.688110 190.718735,192.108521 
	C187.880600,192.754379 184.581680,193.596451 181.237747,193.853897 
	C177.140060,194.169373 173.004715,193.995590 168.414215,194.003326 
z"/>
<path fill="#26C36B" opacity="1.000000" stroke="none" 
	d="
M151.291779,196.042236 
	C156.248627,195.362915 161.678802,194.677338 167.563675,193.963928 
	C162.600616,194.636047 157.182877,195.336014 151.291779,196.042236 
z"/>
<path fill="#26C36B" opacity="1.000000" stroke="none" 
	d="
M139.309570,198.025513 
	C142.343002,197.366104 145.838928,196.709595 149.775620,196.132584 
	C146.734955,196.817535 143.253494,197.422974 139.309570,198.025513 
z"/>
</svg>